<svg xmlns="http://www.w3.org/2000/svg" width="1em" height="1em" viewBox="0 2.4 24 24"><path fill="currentColor" d="M9.775 14.4q-.9 0-1.5-.675T7.8 12.15l.325-2.45q.2-1.425 1.3-2.363T12 6.4q1.475 0 2.575.938t1.3 2.362l.325 2.45q.125.9-.475 1.575t-1.5.675h-4.45Zm0-2h4.45L13.9 10q-.1-.7-.637-1.15T12 8.4q-.725 0-1.263.45T10.1 10l-.325 2.4Zm2.225 0Zm-8 10v-2.8q0-.85.438-1.563T5.6 16.95q1.55-.775 3.15-1.163T12 15.4q1.65 0 3.25.388t3.15 1.162q.725.375 1.163 1.088T20 19.6v2.8H4Zm2-2h12v-.8q0-.275-.138-.5t-.362-.35q-1.35-.675-2.725-1.012T12 17.4q-1.4 0-2.775.338T6.5 18.75q-.225.125-.363.35T6 19.6v.8Zm6 0Z"/></svg>